<?xml version="1.0" encoding="UTF-8"?>
<svg id="_Шар_1" data-name="Шар 1" xmlns="http://www.w3.org/2000/svg" viewBox="0 0 900.1 892.02">
  <defs>
    <style>
      .cls-1 {
        fill: #010101;
      }

      .cls-2 {
        fill: #f7b61e;
      }

      .cls-3 {
        fill: #fedc59;
      }

      .cls-4 {
        fill: #f7b11e;
      }

      .cls-5 {
        fill: #fefefe;
      }
    </style>
  </defs>
  <g>
    <path class="cls-5" d="M386.03.25c-81.73,7.01-180.6,58.69-240.32,113.68-12.02,11.07-47.83,46.49-52.96,60.04s4.2,20.46,14.18,26.79c18.69,11.84,45.67,28.32,65.28,37.72,23.69,11.36,32.62-10.55,47.12-24.92,39.33-38.96,90.14-68.67,143.68-83.32,15.4-4.21,44-4.25,46.22-24.78-1.84-27.74,2.47-58.62-.02-85.99-1.21-13.35-9.84-20.36-23.19-19.22ZM506.99.18c-8.7,1.36-15.03,9.75-15.79,18.23-2.5,27.93,1.88,59.62.13,87.95,2.69,19.75,31.75,19.93,46.91,24.09,48.08,13.2,95.79,39.94,132.53,73.47,10.37,9.46,22.42,25.89,32.45,33.55,8.85,6.76,16.39,5.22,25.69.65,23.4-11.5,46.18-28.49,69.65-40.35,11.78-8.62,13-19.58,4.66-31.3-52.98-74.45-157.88-136.98-245.96-158.04-10.35-2.47-41.3-9.66-50.27-8.25ZM431.04,201.24c-177,10.68-280.8,207.94-196.32,362.73,88.7,162.51,320.94,171.07,421.54,15.5,111.13-171.85-22.32-390.48-225.23-378.23ZM45.98,266.19c-5.46.95-10.36,5.35-12.94,10.06-5.12,9.35-10.85,29.14-14.07,39.93-26.8,89.85-25.37,187.57,5.25,276.29,6.05,17.53,11.33,40.88,35.7,31.66,22.51-14.99,49.41-26.37,71.63-41.37,20.73-14,6.74-34.92,1.77-54.38-14.94-58.49-13.91-110.55,1-168.84,4.6-18,17.36-36.59-2.16-50-22.17-15.23-49.7-26.59-72.24-41.76-4.17-2.09-9.36-2.38-13.94-1.58ZM844.98,266.19c-1.82.32-3.39,1.22-5.06,1.94-23.86,10.36-48.77,30.86-72.81,42.19-18.82,12.46-4.29,36.02.05,53.21,13.63,53.95,13.39,111.74-.21,165.63-4.74,18.78-18.77,38.82.77,52.82,21.71,15.55,50.51,26.83,72.85,42.15,7.01,3.25,15.94,2.61,22.02-2.33,6.14-5,13.94-30.62,16.67-39.33,26.87-85.53,27.89-180.31,2.25-266.29-2.87-9.62-9.9-33.69-14.81-41.19-4.83-7.38-13.16-10.28-21.72-8.8ZM181,650.21c-3.53.48-6.33,2.05-9.43,3.57-19.77,9.72-45.8,25.44-64.63,37.37-5.65,3.58-9.55,4.8-12.88,11.12-6.57,12.48-.06,18.69,7.21,28.16,59.31,77.28,160.76,136.53,255.75,156.25,17.27,3.59,49.88,13.59,52.27-13.19,2.47-27.68-1.93-58.97-.04-87.04-1.1-8.26-6.73-14.78-14.47-17.53-11.26-4.01-27.11-5.7-39.53-9.47-49.16-14.89-97.88-43.53-134.53-79.47-8.78-8.61-21.42-27.99-33.21-29.79-2.44-.37-4.09-.31-6.5.02ZM713,650.21c-11.59,1.49-23.84,20.46-32.24,28.76-40.53,40.08-92.35,68.82-147.31,83.69-16.09,4.35-39.07,3.15-42.22,23.78,1.89,28.07-2.51,59.37-.04,87.04.99,11.06,9.41,18.8,20.55,18.52s30.27-5.21,41.3-7.75c91.57-21.06,188.53-79.14,246.16-153.84,8.69-11.27,14.22-20.34,3.52-33.47-24.51-13.13-49.05-30.99-73.83-43.17-5.69-2.8-9.29-4.42-15.91-3.57Z"/>
    <path class="cls-3" d="M431.04,201.24c202.91-12.25,336.36,206.38,225.23,378.23-100.6,155.57-332.84,147.02-421.54-15.5-84.48-154.79,19.32-352.04,196.32-362.73Z"/>
    <path class="cls-3" d="M386.03.25c13.35-1.14,21.98,5.87,23.19,19.22,2.49,27.36-1.82,58.24.02,85.99-2.22,20.53-30.82,20.57-46.22,24.78-53.54,14.65-104.35,44.36-143.68,83.32-14.5,14.36-23.43,36.27-47.12,24.92-19.61-9.4-46.59-25.88-65.28-37.72-9.99-6.32-19.37-13.09-14.18-26.79s40.94-48.97,52.96-60.04C205.44,58.94,304.3,7.25,386.03.25Z"/>
    <path class="cls-2" d="M181,650.21c2.42-.33,4.06-.39,6.5-.02,11.79,1.79,24.43,21.18,33.21,29.79,36.65,35.94,85.37,64.58,134.53,79.47,12.43,3.76,28.27,5.46,39.53,9.47,7.73,2.75,13.37,9.27,14.47,17.53-1.89,28.07,2.51,59.36.04,87.04-2.39,26.78-35,16.77-52.27,13.19-94.99-19.72-196.44-78.97-255.75-156.25-7.27-9.47-13.78-15.68-7.21-28.16,3.33-6.32,7.23-7.54,12.88-11.12,18.83-11.93,44.86-27.64,64.63-37.37,3.1-1.52,5.9-3.09,9.43-3.57Z"/>
    <path class="cls-4" d="M506.99.18c8.97-1.4,39.92,5.78,50.27,8.25,88.09,21.06,192.98,83.59,245.96,158.04,8.34,11.72,7.12,22.68-4.66,31.3-23.47,11.85-46.26,28.84-69.65,40.35-9.3,4.57-16.84,6.11-25.69-.65-10.03-7.66-22.08-24.08-32.45-33.55-36.74-33.53-84.45-60.26-132.53-73.47-15.16-4.16-44.22-4.34-46.91-24.09,1.75-28.33-2.63-60.03-.13-87.95.76-8.48,7.09-16.87,15.79-18.23Z"/>
    <path class="cls-3" d="M844.98,266.19c8.56-1.48,16.89,1.43,21.72,8.8,4.91,7.5,11.94,31.57,14.81,41.19,25.64,85.98,24.62,180.75-2.25,266.29-2.74,8.71-10.53,34.33-16.67,39.33-6.08,4.94-15.01,5.58-22.02,2.33-22.34-15.32-51.14-26.6-72.85-42.15-19.54-14-5.5-34.04-.77-52.82,13.6-53.89,13.85-111.68.21-165.63-4.34-17.19-18.87-40.74-.05-53.21,24.04-11.32,48.96-31.83,72.81-42.19,1.66-.72,3.23-1.63,5.06-1.94Z"/>
    <path class="cls-3" d="M713,650.21c6.62-.85,10.22.77,15.91,3.57,24.77,12.18,49.32,30.05,73.83,43.17,10.7,13.13,5.17,22.2-3.52,33.47-57.63,74.7-154.59,132.78-246.16,153.84-11.04,2.54-30.64,7.48-41.3,7.75s-19.56-7.46-20.55-18.52c-2.47-27.67,1.93-58.98.04-87.04,3.15-20.63,26.13-19.43,42.22-23.78,54.96-14.87,106.78-43.61,147.31-83.69,8.4-8.3,20.65-27.28,32.24-28.76Z"/>
    <path class="cls-3" d="M45.98,266.19c4.58-.79,9.77-.51,13.94,1.58,22.54,15.16,50.08,26.53,72.24,41.76,19.52,13.41,6.76,32,2.16,50-14.91,58.29-15.94,110.35-1,168.84,4.97,19.47,18.96,40.38-1.77,54.38-22.21,15-49.12,26.39-71.63,41.37-24.36,9.23-29.65-14.12-35.7-31.66-30.61-88.71-32.05-186.44-5.25-276.29,3.22-10.79,8.95-30.58,14.07-39.93,2.58-4.71,7.47-9.12,12.94-10.06Z"/>
  </g>
  <g>
    <path class="cls-1" d="M456.74,333.72v55.2c0,2.87,1.42,5.55,3.79,7.16l50.69,34.43c2.93,1.99,6.77,1.99,9.7.01l51.01-34.45c2.38-1.61,3.81-4.3,3.81-7.17v-55.18c0-4.78,3.87-8.65,8.65-8.65h29.7c4.78,0,8.65,3.87,8.65,8.65v76.34c0,2.78-1.33,5.39-3.59,7.01l-75.83,54.76c-2.25,1.63-3.59,4.24-3.59,7.01v75.34c0,4.78-3.87,8.65-8.65,8.65h-29.7c-4.78,0-8.65-3.87-8.65-8.65v-76.76c0-2.82-1.37-5.46-3.68-7.08l-76.64-53.78c-.69-.48-1.3-1.06-1.82-1.72h0c-1.21-1.53-1.86-3.42-1.86-5.36v-81.85c0-.68.27-1.33.75-1.81h0c.48-.48,1.13-.75,1.81-.75h36.79c4.78,0,8.65,3.87,8.65,8.65Z"/>
    <path class="cls-1" d="M325.74,348.54v164.77c0,.68.27,1.33.75,1.81h0c.48.48,1.13.75,1.81.75h128.96c12.97,0,23.48,10.51,23.48,23.48h0c0,12.97-10.51,23.48-23.48,23.48h-156.05c-12.97,0-23.48-10.51-23.48-23.48v-211.73c0-.68.27-1.33.75-1.81h0c.48-.48,1.13-.75,1.81-.75h21.96c12.97,0,23.48,10.51,23.48,23.48Z"/>
  </g>
</svg>